<?xml version="1.0" encoding="UTF-8"?>
<!-- Generator: visioncortex VTracer 0.6.3 -->
<svg version="1.1" xmlns="http://www.w3.org/2000/svg" width="1280" height="1280">
<path d="M0 0 C1.26 0 1.26 0 2.55 0 C16.86 0.03 30.73 1.08 44.88 3.31 C46.18 3.49 47.48 3.67 48.82 3.85 C69.27 6.7 69.27 6.7 71.88 9.31 C73.19 9.64 74.53 9.93 75.86 10.2 C80.71 11.24 85.4 12.61 90.12 14.12 C90.95 14.39 91.78 14.65 92.64 14.93 C99.49 17.14 106.21 19.58 112.88 22.31 C113.94 22.74 115.01 23.17 116.11 23.61 C128.96 28.89 142 35.09 153.28 43.25 C155.01 44.5 155.01 44.5 157.88 45.31 C157.88 45.97 157.88 46.63 157.88 47.31 C158.52 47.52 159.17 47.73 159.84 47.94 C164.11 49.87 167.71 52.57 171.5 55.31 C173.01 56.4 174.53 57.48 176.04 58.56 C177.04 59.28 177.04 59.28 178.05 60.02 C179.64 61.14 181.25 62.23 182.88 63.31 C182.88 63.97 182.88 64.63 182.88 65.31 C183.56 65.52 184.24 65.73 184.94 65.94 C188.79 67.74 191.95 70.21 194.88 73.31 C194.88 73.97 194.88 74.63 194.88 75.31 C195.46 75.57 196.05 75.83 196.65 76.09 C199.07 77.42 200.61 78.88 202.5 80.88 C204.92 83.45 204.92 83.45 207.88 85.31 C207.88 85.97 207.88 86.63 207.88 87.31 C208.53 87.31 209.2 87.31 209.88 87.31 C211.5 88.96 211.5 88.96 213.31 91.12 C215.85 94.14 215.85 94.14 218.6 96.95 C219.88 98.31 219.88 98.31 219.88 100.31 C220.53 100.31 221.2 100.31 221.88 100.31 C223.82 102.43 223.82 102.43 226 105.19 C226.72 106.09 227.45 107 228.2 107.93 C229.88 110.31 229.88 110.31 229.88 112.31 C230.53 112.31 231.2 112.31 231.88 112.31 C233.18 113.79 233.18 113.79 234.67 115.86 C235.21 116.62 235.76 117.37 236.32 118.15 C237.18 119.38 237.18 119.38 238.06 120.62 C238.65 121.46 239.25 122.29 239.85 123.14 C244.06 129.09 248.13 135.07 251.88 141.31 C252.26 141.94 252.65 142.57 253.05 143.22 C264.56 161.87 273.69 182.22 280.5 203.06 C280.9 204.29 281.31 205.53 281.73 206.8 C282.11 207.96 282.48 209.12 282.88 210.31 C283.41 211.89 283.41 211.89 283.96 213.51 C284.72 215.82 285.32 218.06 285.81 220.44 C286.57 224.01 287.45 227.53 288.38 231.06 C289.99 237.42 290.95 243.82 291.88 250.31 C292.06 251.2 292.24 252.09 292.43 253.01 C292.84 256.08 292.92 258.93 292.9 262.02 C292.9 263.01 292.89 264 292.89 265.02 C292.89 265.78 292.88 266.53 292.88 267.31 C294.17 267.3 295.47 267.28 296.81 267.26 C353.36 266.64 353.36 266.64 375.75 273.45 C378.93 274.4 378.93 274.4 382.49 274.82 C385.52 275.26 387.73 275.9 390.5 277.12 C394.35 278.75 398.17 280.03 402.19 281.19 C409.09 283.27 415.41 286.13 421.88 289.31 C422.85 289.79 422.85 289.79 423.84 290.27 C431.37 293.92 438.76 297.64 445.86 302.09 C447.82 303.28 449.81 304.32 451.88 305.31 C451.88 305.97 451.88 306.63 451.88 307.31 C452.56 307.55 453.24 307.79 453.95 308.03 C457.48 309.58 460.54 311.62 463.69 313.81 C464.28 314.22 464.88 314.62 465.5 315.04 C467 316.07 468.44 317.19 469.88 318.31 C469.88 318.97 469.88 319.63 469.88 320.31 C470.96 320.65 470.96 320.65 472.06 321 C475.41 322.56 477.35 324.65 479.88 327.31 C480.54 327.64 481.19 327.97 481.88 328.31 C481.88 328.97 481.88 329.63 481.88 330.31 C482.42 330.54 482.97 330.76 483.54 330.99 C490.97 335.2 497.62 343.64 502.88 350.31 C502.88 350.97 502.88 351.63 502.88 352.31 C503.54 352.31 504.19 352.31 504.88 352.31 C506.46 354.15 507.93 355.99 509.38 357.94 C509.81 358.52 510.25 359.1 510.71 359.7 C512.1 361.57 513.49 363.44 514.88 365.31 C515.32 365.91 515.77 366.51 516.22 367.12 C521.76 374.58 526.63 382.04 530.88 390.31 C531.6 391.67 532.33 393.03 533.06 394.39 C539.02 405.46 544.42 416.2 547.97 428.31 C548.71 430.76 549.51 433.12 550.44 435.5 C553.07 442.33 555.02 449.29 556.34 456.48 C556.72 458.5 557.14 460.51 557.59 462.52 C564.05 492.84 563.99 527.11 556.88 557.31 C556.64 558.33 556.4 559.36 556.16 560.41 C555.43 563.39 554.66 566.35 553.88 569.31 C553.57 570.55 553.26 571.79 552.94 573.07 C551.34 579.39 549.63 585.42 546.79 591.3 C545.89 593.29 545.25 595.22 544.62 597.31 C541.32 607.59 536.18 617.75 530.39 626.84 C529.04 629.04 527.81 631.27 526.59 633.54 C523.94 638.33 520.89 642.75 517.69 647.19 C516.63 648.66 515.58 650.14 514.52 651.62 C513.83 652.58 513.83 652.58 513.12 653.55 C512.01 655.12 510.94 656.71 509.88 658.31 C509.21 658.31 508.56 658.31 507.88 658.31 C507.41 659.24 507.41 659.24 506.94 660.19 C506.25 661.56 505.56 662.94 504.88 664.31 C504.21 664.31 503.56 664.31 502.88 664.31 C502.66 664.85 502.44 665.38 502.21 665.93 C500.39 669.17 497.96 671.74 495.44 674.44 C494.91 675.01 494.38 675.58 493.83 676.17 C488.78 681.53 483.44 686.48 477.88 691.31 C477.23 691.88 476.59 692.45 475.93 693.04 C472.15 696.31 472.15 696.31 469.88 696.31 C469.88 696.97 469.88 697.63 469.88 698.31 C468.44 699.55 468.44 699.55 466.45 700.91 C465.73 701.4 465.02 701.89 464.29 702.4 C463.53 702.91 462.78 703.41 462 703.94 C460.88 704.71 460.88 704.71 459.74 705.5 C454.14 709.31 454.14 709.31 451.88 709.31 C451.88 709.97 451.88 710.63 451.88 711.31 C450.45 712.12 450.45 712.12 449 712.94 C446.9 714.13 444.83 715.34 442.78 716.63 C429.2 725.15 413.63 732.26 398.22 736.64 C396 737.28 393.82 738 391.62 738.75 C364.02 748.05 336.72 749.77 307.83 749.7 C303.54 749.69 299.26 749.7 294.98 749.71 C287.5 749.72 280.02 749.72 272.53 749.71 C261.41 749.7 250.28 749.7 239.15 749.71 C219.28 749.73 199.4 749.73 179.52 749.72 C162.13 749.71 144.73 749.71 127.34 749.71 C126.18 749.71 125.03 749.71 123.84 749.71 C119.15 749.72 114.45 749.72 109.76 749.72 C65.79 749.73 21.82 749.72 -22.15 749.7 C-61.18 749.69 -100.22 749.69 -139.25 749.7 C-183.15 749.72 -227.05 749.73 -270.94 749.72 C-275.63 749.72 -280.31 749.71 -284.99 749.71 C-286.72 749.71 -286.72 749.71 -288.48 749.71 C-305.87 749.71 -323.25 749.71 -340.63 749.72 C-360.4 749.73 -380.17 749.73 -399.93 749.71 C-410.99 749.7 -422.04 749.7 -433.09 749.71 C-440.49 749.72 -447.88 749.72 -455.28 749.7 C-459.48 749.7 -463.69 749.69 -467.89 749.7 C-490.82 749.76 -514.3 749.81 -535.93 741.12 C-538.81 740.06 -541.74 739.23 -544.69 738.38 C-549.71 736.86 -553.69 735.06 -558.12 732.31 C-559.76 731.64 -561.4 730.96 -563.04 730.29 C-566.86 728.5 -570.44 726.28 -574.06 724.13 C-576.19 722.87 -578.33 721.65 -580.5 720.46 C-584.64 718.1 -588.4 715.27 -592.19 712.38 C-592.87 711.86 -593.55 711.35 -594.25 710.82 C-596.22 709.33 -598.18 707.83 -600.12 706.31 C-600.73 705.84 -601.33 705.37 -601.96 704.89 C-603.39 703.75 -604.76 702.54 -606.12 701.31 C-606.12 700.65 -606.12 699.99 -606.12 699.31 C-607.12 698.98 -608.11 698.65 -609.12 698.31 C-609.12 697.65 -609.12 696.99 -609.12 696.31 C-609.72 696.04 -610.32 695.78 -610.94 695.5 C-613.12 694.31 -614.54 693.22 -616.12 691.31 C-616.12 690.65 -616.12 689.99 -616.12 689.31 C-617.12 688.98 -618.11 688.65 -619.12 688.31 C-619.12 687.65 -619.12 686.99 -619.12 686.31 C-619.78 686.31 -620.44 686.31 -621.12 686.31 C-622.92 684.22 -624.6 682.13 -626.25 679.94 C-626.95 679.03 -626.95 679.03 -627.67 678.11 C-631.12 673.57 -631.12 673.57 -631.12 671.31 C-631.78 671.31 -632.45 671.31 -633.12 671.31 C-634.63 669.45 -634.63 669.45 -636.25 667 C-637.06 665.8 -637.06 665.8 -637.88 664.57 C-639.12 662.31 -639.12 662.31 -639.12 659.31 C-639.78 659.31 -640.45 659.31 -641.12 659.31 C-641.71 658.13 -641.71 658.13 -642.3 656.93 C-645.58 650.24 -645.58 650.24 -649.25 643.75 C-651.32 639.96 -652.72 636.18 -654.13 632.11 C-655.02 629.61 -656.01 627.19 -657.06 624.75 C-658.97 620.03 -660.38 615.21 -661.75 610.31 C-661.96 609.58 -662.16 608.84 -662.37 608.08 C-664.97 598.57 -666.49 589.21 -667.25 579.38 C-667.34 578.37 -667.42 577.36 -667.51 576.32 C-669.04 557.45 -668.28 537.91 -663.03 519.65 C-662.05 516.29 -662.05 516.29 -661.62 512.68 C-661.17 509.6 -660.48 507.28 -659.25 504.44 C-657.97 501.4 -656.82 498.41 -655.88 495.25 C-650.17 477.96 -640.04 459.14 -628.12 445.31 C-627.47 445.31 -626.81 445.31 -626.12 445.31 C-625.9 444.59 -625.67 443.87 -625.44 443.12 C-623.85 439.72 -621.84 437.9 -619.12 435.31 C-618.18 434.2 -617.24 433.07 -616.31 431.94 C-612.94 427.95 -609.1 424.67 -605.12 421.31 C-604.47 420.73 -603.81 420.14 -603.13 419.54 C-602.51 418.99 -601.89 418.44 -601.25 417.88 C-600.7 417.38 -600.14 416.89 -599.57 416.38 C-598.12 415.31 -598.12 415.31 -596.12 415.31 C-596.12 414.65 -596.12 413.99 -596.12 413.31 C-594.2 411.8 -592.28 410.42 -590.25 409.06 C-589.65 408.66 -589.06 408.25 -588.44 407.84 C-572.26 396.94 -554.83 387.12 -535.9 382.11 C-533.24 381.59 -533.24 381.59 -532.12 380.31 C-530.06 379.82 -528 379.35 -525.93 378.91 C-524.04 378.51 -522.16 378.07 -520.29 377.59 C-498.25 372.2 -474.7 372.85 -452.12 372.31 C-452.08 371.74 -452.03 371.17 -451.97 370.58 C-451.5 365.73 -450.72 361.34 -449.19 356.69 C-448.65 355.01 -448.65 355.01 -448.1 353.3 C-447.78 352.32 -447.46 351.33 -447.12 350.31 C-446.79 349.16 -446.47 348 -446.12 346.81 C-445.79 345.66 -445.47 344.5 -445.12 343.31 C-444.84 342.3 -444.55 341.29 -444.26 340.25 C-442.44 334.05 -440.52 328.79 -437.12 323.31 C-436.45 321.67 -435.78 320.03 -435.1 318.39 C-433.31 314.58 -431.09 311 -428.94 307.38 C-427.67 305.23 -426.43 303.08 -425.22 300.9 C-423.04 297.07 -420.56 293.47 -418 289.88 C-417.56 289.24 -417.12 288.6 -416.66 287.95 C-415.53 286.36 -414.34 284.83 -413.12 283.31 C-412.47 283.31 -411.81 283.31 -411.12 283.31 C-410.72 282.45 -410.72 282.45 -410.31 281.56 C-409.1 279.26 -407.82 277.29 -406.12 275.31 C-405.46 275.31 -404.81 275.31 -404.12 275.31 C-403.8 274.32 -403.46 273.33 -403.12 272.31 C-402.46 272.31 -401.81 272.31 -401.12 272.31 C-401.12 271.65 -401.12 270.99 -401.12 270.31 C-400.46 270.31 -399.81 270.31 -399.12 270.31 C-398.8 269.32 -398.46 268.33 -398.12 267.31 C-397.46 267.31 -396.81 267.31 -396.12 267.31 C-396.12 266.65 -396.12 265.99 -396.12 265.31 C-395.46 265.31 -394.81 265.31 -394.12 265.31 C-393.8 264.32 -393.46 263.33 -393.12 262.31 C-392.46 262.31 -391.81 262.31 -391.12 262.31 C-391.12 261.65 -391.12 260.99 -391.12 260.31 C-389.31 258.72 -387.49 257.26 -385.56 255.81 C-384.7 255.15 -384.7 255.15 -383.81 254.48 C-377.63 249.85 -371.23 245.57 -364.75 241.37 C-363.34 240.45 -361.94 239.51 -360.54 238.57 C-357.03 236.26 -355.44 235.31 -351.12 235.31 C-351.12 234.65 -351.12 233.99 -351.12 233.31 C-323.87 221.42 -323.87 221.42 -314.06 219.38 C-311.39 218.81 -308.73 218.21 -306.08 217.55 C-299.49 215.93 -293.27 214.93 -286.49 214.72 C-285.71 214.58 -284.93 214.45 -284.12 214.31 C-282.12 211.31 -281.66 209.65 -280.94 206.19 C-279.11 198.5 -276.02 191.44 -272.92 184.2 C-271.94 181.88 -271.07 179.54 -270.19 177.19 C-268.21 172.18 -265.63 167.52 -263.06 162.8 C-260.49 158.07 -258.22 153.28 -256.12 148.31 C-255.46 148.31 -254.81 148.31 -254.12 148.31 C-254.02 147.75 -253.92 147.18 -253.81 146.6 C-253 143.9 -251.75 142.05 -250.12 139.75 C-248.32 137.18 -247.12 135.31 -246.12 132.31 C-245.46 132.31 -244.81 132.31 -244.12 132.31 C-243.74 131.24 -243.74 131.24 -243.35 130.14 C-239.88 122.14 -233.35 115.23 -227.89 108.5 C-226.72 107.05 -225.59 105.56 -224.52 104.03 C-223.83 103.18 -223.83 103.18 -223.12 102.31 C-222.46 102.31 -221.81 102.31 -221.12 102.31 C-220.9 101.77 -220.68 101.23 -220.45 100.68 C-218.7 97.55 -216.37 95.09 -213.94 92.5 C-213.45 91.97 -212.96 91.44 -212.45 90.9 C-211.01 89.37 -209.57 87.84 -208.12 86.31 C-207.4 85.54 -206.67 84.77 -205.91 83.97 C-202.5 80.45 -202.5 80.45 -201.12 79.31 C-200.46 79.31 -199.81 79.31 -199.12 79.31 C-199.12 78.65 -199.12 77.99 -199.12 77.31 C-193.65 72.31 -193.65 72.31 -191.12 72.31 C-191.12 71.65 -191.12 70.99 -191.12 70.31 C-189.04 68.52 -186.95 66.84 -184.75 65.19 C-183.85 64.49 -183.85 64.49 -182.92 63.77 C-178.39 60.31 -178.39 60.31 -176.12 60.31 C-176.12 59.65 -176.12 58.99 -176.12 58.31 C-173.56 56.02 -172.65 55.31 -169.12 55.31 C-169.12 54.65 -169.12 53.99 -169.12 53.31 C-167.04 51.8 -167.04 51.8 -164.19 50.06 C-160.62 47.87 -157.12 45.64 -153.69 43.25 C-149.49 40.44 -145.11 38.22 -140.57 36.02 C-137.26 34.38 -134.02 32.65 -130.78 30.89 C-124.51 27.49 -118.39 24.4 -111.6 22.14 C-109.04 21.28 -106.56 20.29 -104.06 19.25 C-99.95 17.58 -95.81 16.25 -91.54 15.02 C-89.3 14.36 -87.09 13.64 -84.88 12.88 C-72.89 8.84 -60.74 5.78 -48.25 3.81 C-47.54 3.7 -46.84 3.58 -46.11 3.46 C-30.77 1.02 -15.52 -0.07 0 0 Z M-59.12 63.31 C-60.31 63.63 -61.5 63.95 -62.73 64.28 C-83.03 69.87 -102.82 77.73 -120.75 88.86 C-122.59 89.98 -124.46 91.05 -126.36 92.09 C-130.8 94.62 -134.88 97.61 -139 100.62 C-139.79 101.2 -140.58 101.78 -141.4 102.37 C-143.64 104.01 -145.89 105.66 -148.12 107.31 C-149.17 108.08 -150.22 108.85 -151.3 109.65 C-154.3 111.87 -154.3 111.87 -157.12 114.31 C-157.12 114.97 -157.12 115.63 -157.12 116.31 C-157.71 116.57 -158.3 116.84 -158.91 117.11 C-161.24 118.38 -162.73 119.71 -164.56 121.62 C-165.47 122.56 -165.47 122.56 -166.39 123.51 C-166.96 124.1 -167.54 124.7 -168.12 125.31 C-173.12 130.31 -173.12 130.31 -175.44 132.5 C-177.35 134.14 -177.35 134.14 -177.12 136.31 C-178.61 136.81 -178.61 136.81 -180.12 137.31 C-180.12 137.97 -180.12 138.63 -180.12 139.31 C-180.79 139.31 -181.44 139.31 -182.12 139.31 C-182.45 140.63 -182.79 141.95 -183.12 143.31 C-183.79 143.31 -184.44 143.31 -185.12 143.31 C-186.14 144.97 -187.14 146.64 -188.12 148.31 C-188.7 148.85 -189.27 149.39 -189.86 149.95 C-193.06 153.29 -195.47 157.07 -198 160.94 C-198.54 161.75 -199.07 162.57 -199.63 163.41 C-201.13 165.71 -202.63 168.01 -204.12 170.31 C-205 171.63 -205 171.63 -205.89 172.98 C-213.18 184.48 -219.25 197.61 -223.5 210.55 C-224.12 212.31 -224.12 212.31 -225.12 213.31 C-225.17 214.98 -225.17 216.65 -225.12 218.31 C-222 220.04 -219.04 220.9 -215.56 221.69 C-200.27 225.41 -185.39 231.87 -172.12 240.31 C-170.99 240.95 -169.86 241.59 -168.69 242.25 C-159.59 247.46 -151.78 253.14 -144.12 260.31 C-142.76 261.51 -141.38 262.69 -140 263.88 C-129.09 273.39 -129.09 273.39 -127.12 277.31 C-126.46 277.31 -125.81 277.31 -125.12 277.31 C-124.88 277.85 -124.63 278.4 -124.38 278.95 C-122.85 281.84 -121.03 284.41 -119.12 287.06 C-118.42 288.05 -117.72 289.03 -117 290.05 C-116.38 290.79 -115.76 291.54 -115.12 292.31 C-114.46 292.31 -113.81 292.31 -113.12 292.31 C-112.88 292.83 -112.63 293.34 -112.38 293.88 C-109.87 298.76 -107.05 303.44 -104.19 308.12 C-99.34 316.19 -95.43 324.51 -92.12 333.31 C-91.66 334.5 -91.2 335.69 -90.72 336.91 C-84.33 353.7 -81.02 370.73 -79.69 388.62 C-79.55 390.44 -79.55 390.44 -79.41 392.29 C-78.89 400.72 -78.66 409.62 -83.62 416.88 C-84.05 417.52 -84.47 418.16 -84.91 418.82 C-86.12 420.31 -86.12 420.31 -88.12 421.31 C-88.12 421.97 -88.12 422.63 -88.12 423.31 C-89.45 423.64 -90.76 423.97 -92.12 424.31 C-92.12 424.97 -92.12 425.63 -92.12 426.31 C-92.89 426.46 -93.65 426.6 -94.44 426.75 C-97.21 427.28 -97.21 427.28 -100.12 428.31 C-108.87 429.17 -115.9 428.57 -123.12 423.31 C-128.92 418.07 -132.66 412.39 -133.57 404.47 C-133.62 403.11 -133.66 401.74 -133.69 400.38 C-133.75 398.86 -133.82 397.35 -133.89 395.84 C-133.93 395.09 -133.97 394.33 -134 393.55 C-134.96 376.08 -139.2 359.88 -147.12 344.31 C-147.47 343.58 -147.82 342.85 -148.18 342.09 C-152.72 332.61 -158.43 324.38 -165.12 316.31 C-165.82 315.39 -166.52 314.47 -167.24 313.52 C-167.86 312.79 -168.48 312.06 -169.12 311.31 C-169.79 311.31 -170.44 311.31 -171.12 311.31 C-171.53 310.35 -171.53 310.35 -171.94 309.38 C-173.01 306.98 -173.01 306.98 -176.12 306.31 C-176.12 305.65 -176.12 304.99 -176.12 304.31 C-177.61 302.98 -179.17 301.72 -180.75 300.5 C-183.6 298.29 -186.37 296.09 -189.06 293.69 C-200.67 284.68 -216.22 277.47 -230.5 274.19 C-238 272.44 -238 272.44 -239.12 271.31 C-263.13 267.14 -287.05 268.61 -310.12 276.31 C-311.23 276.67 -312.34 277.03 -313.49 277.4 C-328.23 282.57 -341.13 291.47 -353.12 301.31 C-353.9 301.94 -354.68 302.56 -355.48 303.2 C-357.08 304.52 -358.61 305.9 -360.12 307.31 C-360.12 307.97 -360.12 308.63 -360.12 309.31 C-360.78 309.31 -361.44 309.31 -362.12 309.31 C-384.55 333.34 -396.98 363.33 -398.69 395.94 C-399.18 405.33 -400.12 412.77 -406.12 420.31 C-406.78 420.64 -407.44 420.97 -408.12 421.31 C-408.12 421.97 -408.12 422.63 -408.12 423.31 C-409.44 423.64 -410.76 423.97 -412.12 424.31 C-412.12 424.97 -412.12 425.63 -412.12 426.31 C-412.89 426.46 -413.65 426.6 -414.44 426.75 C-417.21 427.28 -417.21 427.28 -420.12 428.31 C-422.29 428.42 -424.46 428.47 -426.62 428.49 C-427.28 428.49 -427.93 428.5 -428.61 428.51 C-430.03 428.52 -431.46 428.53 -432.89 428.54 C-435.16 428.56 -437.43 428.58 -439.71 428.61 C-446.17 428.68 -452.64 428.74 -459.1 428.79 C-463.06 428.82 -467.02 428.86 -470.98 428.91 C-472.47 428.93 -473.96 428.94 -475.46 428.95 C-483.48 428.99 -491.39 429.31 -499.37 430.21 C-500.42 430.33 -500.42 430.33 -501.5 430.44 C-505.34 430.92 -508.6 431.74 -512.12 433.31 C-513.97 433.78 -515.83 434.21 -517.69 434.62 C-534.05 438.66 -548.28 447.58 -561.81 457.38 C-562.74 458.05 -563.68 458.72 -564.64 459.41 C-566.66 460.96 -568.48 462.37 -570.12 464.31 C-570.12 464.97 -570.12 465.63 -570.12 466.31 C-571.08 466.71 -571.08 466.71 -572.06 467.12 C-574.46 468.2 -574.46 468.2 -575.12 471.31 C-575.78 471.31 -576.44 471.31 -577.12 471.31 C-579.17 473.49 -579.17 473.49 -581.25 476.19 C-581.97 477.09 -582.7 478 -583.45 478.93 C-585.32 481.1 -585.32 481.1 -585.12 483.31 C-585.78 483.31 -586.44 483.31 -587.12 483.31 C-590.08 487.46 -592.57 491.92 -595.12 496.31 C-595.77 497.4 -596.41 498.49 -597.07 499.61 C-601.22 506.95 -603.95 514.18 -606.12 522.31 C-608 529.03 -608 529.03 -609.11 531.57 C-617.37 553.89 -612.4 583.52 -605.12 605.31 C-604.59 606.98 -604.59 606.98 -604.04 608.68 C-598.86 623.41 -589.96 636.32 -580.12 648.31 C-579.5 649.09 -578.88 649.87 -578.23 650.67 C-576.92 652.26 -575.53 653.8 -574.12 655.31 C-573.47 655.31 -572.81 655.31 -572.12 655.31 C-572.12 655.97 -572.12 656.63 -572.12 657.31 C-557.76 671.05 -557.76 671.05 -540.12 678.31 C-540.12 678.97 -540.12 679.63 -540.12 680.31 C-539.48 680.57 -538.84 680.82 -538.18 681.08 C-534.3 682.63 -530.44 684.17 -526.62 685.88 C-506.2 694.26 -484.53 693.75 -462.84 693.69 C-458.58 693.68 -454.32 693.68 -450.07 693.69 C-442.62 693.7 -435.17 693.69 -427.72 693.68 C-416.65 693.67 -405.57 693.67 -394.5 693.67 C-375.86 693.68 -357.22 693.67 -338.59 693.66 C-320.13 693.65 -301.68 693.64 -283.23 693.64 C-282.08 693.64 -280.93 693.64 -279.74 693.64 C-275.08 693.64 -270.42 693.64 -265.75 693.64 C-223.27 693.63 -180.79 693.62 -138.31 693.59 C-98.22 693.57 -58.12 693.56 -18.03 693.55 C-16.17 693.55 -16.17 693.55 -14.28 693.55 C-9.3 693.55 -4.32 693.55 0.66 693.55 C3.14 693.55 5.63 693.55 8.11 693.55 C10.59 693.55 13.06 693.55 15.54 693.55 C54.98 693.55 94.41 693.53 133.85 693.52 C145.39 693.52 156.94 693.51 168.48 693.51 C192.75 693.51 217.02 693.5 241.29 693.48 C251.33 693.48 261.36 693.47 271.4 693.47 C279.72 693.47 288.04 693.47 296.36 693.46 C300.55 693.46 304.74 693.45 308.93 693.45 C312.74 693.46 316.56 693.45 320.37 693.45 C322.38 693.44 324.39 693.45 326.4 693.45 C338.96 694.07 338.96 694.07 350.88 691.31 C353.34 691.04 355.8 690.87 358.27 690.69 C361.07 690.28 363.26 689.38 365.88 688.31 C367.95 687.82 370.04 687.37 372.12 686.94 C376.94 685.86 381.16 684.5 385.6 682.36 C389.9 680.38 394.41 678.88 398.88 677.31 C398.88 676.65 398.88 675.99 398.88 675.31 C399.96 675.13 399.96 675.13 401.06 674.94 C403.83 674.32 406.27 673.43 408.88 672.31 C408.88 671.65 408.88 670.99 408.88 670.31 C409.46 670.19 410.04 670.07 410.64 669.95 C412.97 669.28 414.62 668.4 416.66 667.1 C417.36 666.66 418.05 666.22 418.77 665.77 C419.48 665.31 420.2 664.85 420.94 664.38 C421.66 663.92 422.38 663.46 423.12 662.99 C426.06 661.13 428.98 659.24 431.88 657.31 C431.88 656.65 431.88 655.99 431.88 655.31 C432.43 655.04 432.99 654.78 433.56 654.5 C438.5 651.97 441.98 649.27 445.88 645.31 C446.98 644.22 448.09 643.14 449.21 642.05 C450.37 640.91 451.53 639.77 452.69 638.62 C453.28 638.04 453.88 637.46 454.5 636.87 C456 635.39 457.44 633.85 458.88 632.31 C458.88 631.65 458.88 630.99 458.88 630.31 C459.54 630.31 460.19 630.31 460.88 630.31 C462.45 628.54 463.89 626.77 465.31 624.88 C465.75 624.3 466.19 623.72 466.64 623.13 C477.2 608.99 486.7 593.89 492.88 577.31 C493.35 576.15 493.82 575 494.31 573.8 C497.97 564.72 500.28 555.72 502.11 546.1 C502.88 542.31 502.88 542.31 503.88 540.31 C507.95 514.11 507.43 486.78 499.88 461.31 C499.55 459.96 499.24 458.61 498.94 457.25 C496.45 447.22 492.36 437.59 487.88 428.31 C487.35 427.2 486.83 426.09 486.29 424.94 C480.21 412.37 472.32 401.37 463.88 390.31 C463.33 389.54 462.79 388.77 462.24 387.97 C461.79 387.42 461.34 386.88 460.88 386.31 C460.21 386.31 459.56 386.31 458.88 386.31 C458.61 385.72 458.35 385.13 458.07 384.53 C456.83 382.23 455.52 380.7 453.69 378.86 C452.76 377.93 452.76 377.93 451.82 376.98 C451.18 376.35 450.54 375.72 449.88 375.06 C449.23 374.41 448.59 373.76 447.93 373.09 C447.01 372.17 447.01 372.17 446.06 371.23 C445.5 370.67 444.94 370.11 444.36 369.53 C442.94 368.1 442.94 368.1 440.88 368.31 C440.88 367.65 440.88 366.99 440.88 366.31 C439.39 364.95 439.39 364.95 437.5 363.69 C436.87 363.24 436.25 362.8 435.6 362.34 C433.92 361.14 433.92 361.14 431.88 361.31 C431.88 360.65 431.88 359.99 431.88 359.31 C429.93 357.72 429.93 357.72 427.5 356.19 C426.69 355.65 425.88 355.11 425.04 354.55 C423 353.15 423 353.15 420.88 353.31 C420.88 352.65 420.88 351.99 420.88 351.31 C419.44 350.47 418 349.64 416.56 348.81 C415.36 348.12 415.36 348.12 414.14 347.41 C411.84 346.09 411.84 346.09 408.88 346.31 C408.88 345.65 408.88 344.99 408.88 344.31 C402.88 341.14 396.91 338.5 390.51 336.28 C388.14 335.41 385.95 334.42 383.69 333.31 C378.13 330.75 372.19 329.53 366.25 328.14 C362.88 327.31 362.88 327.31 360.88 326.31 C359.09 325.94 357.3 325.61 355.5 325.31 C354.54 325.15 353.59 324.98 352.6 324.81 C342.67 323.48 332.77 323.15 322.76 323.08 C320.47 323.07 318.17 323.04 315.87 323.02 C309.35 322.95 302.83 322.89 296.3 322.84 C292.29 322.8 288.28 322.76 284.26 322.72 C282.75 322.7 281.23 322.69 279.71 322.68 C256.32 322.54 256.32 322.54 247.88 314.31 C242.42 308.23 239.67 302.61 239.57 294.3 C239.54 293.16 239.52 292.02 239.5 290.84 C239.48 289.64 239.46 288.43 239.44 287.19 C239.59 268.31 239.59 268.31 234.88 250.31 C234.69 248.36 234.69 248.36 234.5 246.38 C233.61 237.74 230.73 229.47 227.88 221.31 C227.49 220.22 227.11 219.12 226.71 217.99 C223.32 208.38 220.03 199.12 214.88 190.31 C214.15 188.59 213.42 186.87 212.69 185.15 C206.47 171.11 196.79 157.93 187.21 146.01 C186.02 144.5 184.94 142.91 183.88 141.31 C183.22 141.31 182.55 141.31 181.88 141.31 C181.66 140.78 181.44 140.24 181.21 139.69 C179.41 136.48 177 133.92 174.5 131.25 C173.71 130.4 173.71 130.4 172.91 129.54 C169.15 125.55 165.27 121.72 161.25 118 C160.74 117.53 160.23 117.05 159.71 116.56 C157.19 114.04 157.19 114.04 153.88 113.31 C153.88 112.65 153.88 111.99 153.88 111.31 C152.06 109.72 150.24 108.26 148.31 106.81 C147.73 106.37 147.14 105.93 146.54 105.47 C130.47 93.45 113.52 82.8 94.88 75.31 C93.37 74.63 91.87 73.95 90.38 73.25 C81.37 69.25 72.02 66.25 62.56 63.56 C61.83 63.35 61.11 63.14 60.36 62.92 C55.82 61.67 51.43 60.94 46.73 60.55 C44.88 60.31 44.88 60.31 42.88 59.31 C29.68 56.73 16.72 55.83 3.29 55.92 C0.44 55.94 -2.41 55.92 -5.26 55.9 C-23.72 55.88 -41.35 58.36 -59.12 63.31 Z " fill="#fff" transform="translate(693.125,451.6875)"/>
<path d="M0 0 C4.91 1.27 9.86 2.26 14.83 3.27 C17.63 3.94 20.13 4.86 22.78 5.98 C24.38 6.44 25.98 6.91 27.58 7.36 C49.26 13.48 69.47 22.95 88.62 34.74 C90.85 36.11 90.85 36.11 93.78 36.98 C93.78 37.64 93.78 38.3 93.78 38.98 C94.32 39.07 94.86 39.16 95.42 39.26 C98.48 40.19 100.84 41.7 103.53 43.41 C104.52 44.03 105.5 44.65 106.52 45.29 C107.26 45.84 108.01 46.4 108.78 46.98 C108.78 47.64 108.78 48.3 108.78 48.98 C109.44 49.18 110.1 49.39 110.78 49.6 C114.85 51.47 118.47 53.95 121.78 56.98 C121.78 57.64 121.78 58.3 121.78 58.98 C122.59 59.35 122.59 59.35 123.41 59.73 C126.36 61.28 129.08 63.01 131.78 64.98 C131.78 65.64 131.78 66.3 131.78 66.98 C132.37 67.23 132.95 67.49 133.55 67.75 C135.97 69.08 137.51 70.54 139.41 72.54 C141.83 75.12 141.83 75.12 144.78 76.98 C144.78 77.64 144.78 78.3 144.78 78.98 C145.44 78.98 146.1 78.98 146.78 78.98 C148.41 80.35 148.41 80.35 149.78 81.98 C149.78 82.64 149.78 83.3 149.78 83.98 C150.44 83.98 151.1 83.98 151.78 83.98 C156.78 89.45 156.78 89.45 156.78 91.98 C157.77 92.31 158.76 92.64 159.78 92.98 C159.78 93.64 159.78 94.3 159.78 94.98 C160.44 94.98 161.1 94.98 161.78 94.98 C163.73 97.09 163.73 97.09 165.91 99.85 C166.63 100.76 167.36 101.66 168.1 102.59 C169.78 104.98 169.78 104.98 169.78 106.98 C170.44 106.98 171.1 106.98 171.78 106.98 C173.47 109.5 173.47 109.5 175.34 112.79 C175.96 113.87 176.58 114.95 177.22 116.06 C180.61 122.4 180.61 129.21 179.39 136.23 C176.98 143.9 170.95 150.08 164.09 154.04 C156.75 157.31 148.48 157.24 140.97 154.48 C139.39 153.73 139.39 153.73 137.78 152.98 C137.78 152.32 137.78 151.66 137.78 150.98 C136.61 150.61 136.61 150.61 135.41 150.23 C132.46 148.82 131.88 147.97 130.78 144.98 C130.12 144.98 129.46 144.98 128.78 144.98 C128.45 143.66 128.12 142.34 127.78 140.98 C127.12 140.98 126.46 140.98 125.78 140.98 C122.78 137.52 122.78 137.52 122.78 134.98 C122.12 134.98 121.46 134.98 120.78 134.98 C119.39 133.4 118.07 131.76 116.78 130.1 C109.32 120.78 100.76 111.63 90.78 104.98 C90.78 104.32 90.78 103.66 90.78 102.98 C90.12 102.77 89.46 102.56 88.78 102.35 C84.71 100.49 81.09 98 77.78 94.98 C77.78 94.32 77.78 93.66 77.78 92.98 C77.19 92.85 76.59 92.73 75.98 92.6 C72.52 91.62 69.82 89.4 66.91 87.35 C59.81 82.49 52.56 78.67 44.78 74.98 C42.72 73.92 40.65 72.85 38.59 71.79 C33.13 69.05 27.56 66.96 21.78 64.98 C20.4 64.46 19.03 63.94 17.66 63.41 C16.37 62.93 15.07 62.45 13.78 61.98 C13.17 61.74 12.55 61.51 11.92 61.27 C5.72 59.03 -0.66 57.7 -7.1 56.33 C-13.03 55.07 -13.03 55.07 -15.22 53.98 C-17.03 53.77 -18.84 53.61 -20.66 53.48 C-23.78 53.24 -26.23 52.97 -29.22 51.98 C-39 50.74 -48.88 50.82 -58.72 50.85 C-61.21 50.85 -63.71 50.85 -66.2 50.84 C-83.8 50.83 -101.07 51.79 -117.96 57.07 C-121.22 57.98 -121.22 57.98 -124.82 58.48 C-127.92 58.93 -130.25 59.61 -133.09 60.85 C-136.17 62.14 -139.22 63.34 -142.41 64.35 C-155.59 68.68 -168.23 74.28 -179.96 81.71 C-182.22 82.98 -182.22 82.98 -185.22 82.98 C-185.22 83.64 -185.22 84.3 -185.22 84.98 C-187.48 86.67 -187.48 86.67 -190.47 88.54 C-191.44 89.16 -192.42 89.78 -193.42 90.42 C-195.79 91.74 -197.58 92.52 -200.22 92.98 C-200.22 93.64 -200.22 94.3 -200.22 94.98 C-201.95 96.42 -203.76 97.79 -205.59 99.1 C-206.59 99.83 -207.59 100.55 -208.62 101.3 C-211.22 102.98 -211.22 102.98 -213.22 102.98 C-213.22 103.64 -213.22 104.3 -213.22 104.98 C-214.73 106.3 -216.31 107.56 -217.91 108.79 C-227.52 116.49 -235.98 125 -243.22 134.98 C-243.88 134.98 -244.54 134.98 -245.22 134.98 C-245.53 135.6 -245.84 136.21 -246.16 136.85 C-246.84 138.23 -247.53 139.6 -248.22 140.98 C-248.88 140.98 -249.54 140.98 -250.22 140.98 C-250.57 141.75 -250.57 141.75 -250.93 142.54 C-252.69 145.86 -254.8 148.93 -256.91 152.04 C-257.82 153.4 -258.72 154.76 -259.63 156.12 C-261.11 158.34 -262.61 160.54 -264.12 162.74 C-269.39 170.62 -273.22 179.14 -277.17 187.74 C-278.19 189.91 -279.26 192.05 -280.36 194.18 C-281.97 197.38 -283.21 200.56 -284.28 203.98 C-285.38 207.39 -286.48 210.76 -287.78 214.1 C-290.86 222.2 -292.83 230.4 -294.34 238.91 C-294.68 240.76 -295.01 242.6 -295.35 244.44 C-295.49 245.24 -295.64 246.04 -295.79 246.87 C-296.22 248.98 -296.22 248.98 -297.22 251.98 C-298.98 264.44 -299.41 276.9 -299.41 289.48 C-299.41 290.16 -299.41 290.84 -299.41 291.55 C-299.45 300.32 -299.45 300.32 -298.22 308.98 C-298.07 311.27 -297.95 313.56 -297.84 315.85 C-297.4 323.76 -295.92 331.24 -294.22 338.98 C-293.72 341.59 -293.23 344.21 -292.75 346.83 C-292.13 349.33 -291.18 351.59 -290.22 353.98 C-289.56 356.1 -288.91 358.22 -288.28 360.35 C-286.85 365.07 -285.23 369.49 -283.22 373.98 C-282.93 374.88 -282.64 375.79 -282.34 376.73 C-280.25 382.79 -277.37 388.54 -274.63 394.33 C-269.78 404.64 -266.23 412.49 -270.23 423.72 C-271.79 427.27 -273.74 429.99 -276.22 432.98 C-276.88 432.98 -277.54 432.98 -278.22 432.98 C-278.55 433.97 -278.88 434.96 -279.22 435.98 C-285.7 441.09 -292.71 441.68 -300.72 441.4 C-305.29 440.85 -308.51 439.66 -312.22 436.98 C-313.21 436.28 -314.2 435.57 -315.22 434.85 C-315.88 434.23 -316.54 433.61 -317.22 432.98 C-317.22 432.32 -317.22 431.66 -317.22 430.98 C-317.88 430.98 -318.54 430.98 -319.22 430.98 C-319.22 429.99 -319.22 429 -319.22 427.98 C-319.88 427.98 -320.54 427.98 -321.22 427.98 C-325.58 419.44 -329.87 410.98 -333.22 401.98 C-334.05 399.81 -334.88 397.64 -335.72 395.48 C-336.14 394.37 -336.56 393.27 -336.99 392.13 C-338.06 389.39 -339.19 386.69 -340.34 383.98 C-342.33 379.09 -343.44 374.11 -344.51 368.96 C-345.12 366.03 -345.12 366.03 -346.21 363.58 C-347.52 360.19 -348.11 356.73 -348.72 353.16 C-349.82 346.91 -349.82 346.91 -351.28 340.73 C-353.73 330.93 -354.65 321.06 -355.22 311 C-355.34 308.91 -355.47 306.82 -355.61 304.73 C-357.05 281.18 -355.96 257.13 -351.22 233.98 C-351.06 233.15 -350.89 232.32 -350.73 231.47 C-350.21 228.87 -349.69 226.27 -349.16 223.66 C-348.99 222.87 -348.83 222.07 -348.66 221.25 C-347.82 217.3 -346.78 213.72 -345.22 209.98 C-344.73 208.11 -344.27 206.23 -343.84 204.35 C-342.38 198.37 -340.46 192.71 -338.22 186.98 C-337.79 185.86 -337.36 184.74 -336.91 183.59 C-332.98 173.58 -328.64 163.77 -324.22 153.98 C-323.56 153.98 -322.9 153.98 -322.22 153.98 C-322.11 153.25 -322 152.53 -321.89 151.78 C-321.16 148.75 -320.07 146.73 -318.41 144.1 C-316.66 141.29 -314.95 138.5 -313.34 135.6 C-310.28 130.2 -306.7 125.11 -303.22 119.98 C-302.4 118.76 -301.59 117.53 -300.77 116.31 C-299.96 115.12 -299.15 113.92 -298.34 112.73 C-297.96 112.15 -297.58 111.58 -297.19 110.99 C-296.25 109.62 -295.24 108.29 -294.22 106.98 C-293.56 106.98 -292.9 106.98 -292.22 106.98 C-291.95 106.4 -291.68 105.83 -291.41 105.24 C-290.18 102.9 -288.79 100.85 -287.22 98.73 C-286.7 98.02 -286.19 97.31 -285.66 96.59 C-285.18 96.05 -284.71 95.52 -284.22 94.98 C-283.56 94.98 -282.9 94.98 -282.22 94.98 C-281.96 94.39 -281.7 93.8 -281.43 93.19 C-280.14 90.84 -278.78 89.37 -276.84 87.54 C-274.66 85.43 -272.79 83.44 -270.91 81.04 C-270.07 80.02 -270.07 80.02 -269.22 78.98 C-268.56 78.98 -267.9 78.98 -267.22 78.98 C-267.22 78.32 -267.22 77.66 -267.22 76.98 C-265.57 75.36 -265.57 75.36 -263.41 73.54 C-260.39 71 -260.39 71 -257.58 68.25 C-256.22 66.98 -256.22 66.98 -254.22 66.98 C-254.22 66.32 -254.22 65.66 -254.22 64.98 C-252.07 63.12 -249.91 61.38 -247.66 59.66 C-247.05 59.19 -246.44 58.72 -245.81 58.23 C-243.96 56.8 -242.09 55.38 -240.22 53.98 C-239.57 53.49 -238.93 53.01 -238.26 52.51 C-233.46 48.98 -233.46 48.98 -231.22 48.98 C-231.22 48.32 -231.22 47.66 -231.22 46.98 C-229.21 45.47 -229.21 45.47 -226.39 43.71 C-225.36 43.07 -224.33 42.42 -223.27 41.76 C-222.18 41.09 -221.09 40.42 -219.97 39.73 C-218.92 39.07 -217.88 38.41 -216.8 37.74 C-209.79 33.38 -202.65 29.56 -195.22 25.98 C-193.91 25.32 -192.6 24.66 -191.3 24 C-181.01 18.81 -170.7 14.33 -159.89 10.34 C-157.74 9.54 -155.59 8.72 -153.46 7.86 C-150.85 6.83 -148.18 6.19 -145.45 5.54 C-143.04 4.93 -140.66 4.21 -138.28 3.48 C-133.63 2.07 -128.98 0.96 -124.22 -0.02 C-123.23 -0.25 -122.25 -0.47 -121.23 -0.71 C-82.63 -9.14 -38.38 -10.05 0 0 Z " fill="#fff" transform="translate(541.21875,245.0234375)"/>
<path d="M0 0 C9 4.69 14.17 10.74 17.25 20.44 C17.92 25.37 17.93 30.22 17.88 35.2 C17.88 36.59 17.88 37.99 17.89 39.39 C17.89 42.3 17.87 45.21 17.85 48.12 C17.81 51.82 17.82 55.53 17.84 59.23 C17.85 62.11 17.84 64.99 17.82 67.87 C17.82 69.9 17.82 71.92 17.83 73.94 C17.74 81.33 17.03 87.02 13.25 93.44 C12.86 94.1 12.47 94.76 12.07 95.45 C8.53 101.19 3.41 103.96 -2.56 106.75 C-13.41 109.09 -20.47 106.49 -29.56 100.62 C-35.53 94.66 -38.97 87.54 -39.07 79.09 C-39.09 77.83 -39.11 76.57 -39.13 75.27 C-39.14 73.9 -39.15 72.52 -39.16 71.15 C-39.16 70.45 -39.17 69.76 -39.17 69.04 C-39.2 65.34 -39.22 61.65 -39.23 57.95 C-39.24 54.16 -39.29 50.38 -39.35 46.59 C-39.38 43.65 -39.39 40.71 -39.4 37.77 C-39.4 36.38 -39.42 34.99 -39.45 33.59 C-39.61 24.12 -38.49 16.25 -32.75 8.44 C-31.43 7.74 -30.1 7.07 -28.75 6.44 C-28.42 5.45 -28.09 4.46 -27.75 3.44 C-26.01 2.3 -26.01 2.3 -23.88 1.31 C-23.18 0.98 -22.48 0.65 -21.76 0.3 C-14.93 -2.64 -6.92 -2.82 0 0 Z " fill="#fff" transform="translate(490.75,80.5625)"/>
<path d="M0 0 C1.81 -0 1.81 -0 3.66 -0.01 C6.21 -0.01 8.75 -0 11.3 0 C15.18 0.02 19.05 0 22.93 -0.01 C25.41 -0.01 27.89 -0 30.38 0 C31.53 -0 32.68 -0.01 33.86 -0.01 C42.75 0.04 50.34 0.84 58.19 5.27 C58.19 5.93 58.19 6.59 58.19 7.27 C59.15 7.67 59.15 7.67 60.12 8.08 C62.19 9.27 62.19 9.27 63.19 12.27 C63.85 12.27 64.51 12.27 65.19 12.27 C69.66 19.79 71.18 28.28 69.09 36.83 C67.52 41.07 65.19 44.88 62.19 48.27 C61.53 48.27 60.87 48.27 60.19 48.27 C60.19 48.93 60.19 49.59 60.19 50.27 C58.87 50.6 57.55 50.93 56.19 51.27 C56.19 51.93 56.19 52.59 56.19 53.27 C48.67 56.88 41.46 56.7 33.25 56.66 C31.8 56.67 30.35 56.67 28.9 56.67 C25.88 56.68 22.85 56.67 19.83 56.66 C15.97 56.64 12.11 56.65 8.25 56.67 C5.26 56.68 2.27 56.67 -0.72 56.67 C-2.14 56.67 -3.57 56.67 -4.99 56.67 C-12.59 56.7 -18.9 56.59 -25.81 53.27 C-25.81 52.61 -25.81 51.95 -25.81 51.27 C-27.13 50.94 -28.45 50.61 -29.81 50.27 C-29.81 49.61 -29.81 48.95 -29.81 48.27 C-30.8 47.94 -31.79 47.61 -32.81 47.27 C-37.96 41.69 -39.44 34.65 -39.81 27.27 C-39.32 21.73 -37.55 17.11 -34.81 12.27 C-34.15 12.27 -33.49 12.27 -32.81 12.27 C-32.54 11.63 -32.28 10.99 -32 10.33 C-30.81 8.27 -30.81 8.27 -27.81 7.27 C-27.81 6.61 -27.81 5.95 -27.81 5.27 C-18.88 0.23 -10.05 -0.04 0 0 Z " fill="#fff" transform="translate(64.8125,504.734375)"/>
<path d="M0 0 C2.3 1.45 4.09 2.95 5.98 4.89 C6.56 5.44 7.14 6 7.73 6.57 C13.17 12.26 15.11 18.03 15.42 25.83 C15.25 31.7 13.81 35.81 10.98 40.89 C10.53 41.75 10.09 42.62 9.62 43.5 C7.12 48.26 4.42 52.82 1.48 57.33 C-2.17 62.95 -5.14 68.84 -8.02 74.89 C-8.68 74.89 -9.34 74.89 -10.02 74.89 C-10.13 75.45 -10.24 76.01 -10.36 76.59 C-11.11 79.21 -12.23 81.29 -13.58 83.64 C-14.04 84.44 -14.49 85.24 -14.96 86.06 C-15.31 86.67 -15.66 87.27 -16.02 87.89 C-16.68 87.89 -17.34 87.89 -18.02 87.89 C-18.4 88.78 -18.4 88.78 -18.79 89.7 C-21.35 94.26 -26.22 97.01 -30.83 99.27 C-39.32 100.93 -46.58 100.49 -54.02 95.89 C-60.41 91.54 -64.79 86.37 -67.02 78.89 C-68.59 68.69 -66.31 61.54 -61.02 52.89 C-60.52 52.04 -60.01 51.19 -59.5 50.31 C-58.51 48.65 -57.52 47.01 -56.51 45.37 C-54.99 42.85 -53.59 40.29 -52.21 37.7 C-49.32 32.33 -46.19 27.12 -43 21.93 C-41.38 19.27 -40.01 16.86 -39.02 13.89 C-38.36 13.89 -37.7 13.89 -37.02 13.89 C-36.96 13.35 -36.9 12.82 -36.83 12.27 C-34.9 6.6 -30.29 2.51 -25.07 -0.18 C-17.32 -2.53 -7.65 -2.81 0 0 Z " fill="#fff" transform="translate(706.01953125,138.109375)"/>
<path d="M0 0 C3.79 2.17 6.75 4.42 9.5 7.81 C9.5 8.47 9.5 9.13 9.5 9.81 C10.16 9.81 10.82 9.81 11.5 9.81 C15.27 15.99 17.22 23.47 16.02 30.67 C14.87 34.6 13.38 38.18 11.5 41.81 C10.84 41.81 10.18 41.81 9.5 41.81 C9.23 42.45 8.96 43.09 8.69 43.75 C7.5 45.81 7.5 45.81 4.5 46.81 C4.5 47.47 4.5 48.13 4.5 48.81 C3.51 48.81 2.52 48.81 1.5 48.81 C1.5 49.47 1.5 50.13 1.5 50.81 C-11.71 58.41 -11.71 58.41 -17.94 61.75 C-22.41 64.17 -26.77 66.75 -31.12 69.38 C-33.58 70.86 -36.04 72.33 -38.5 73.81 C-39.41 74.36 -40.31 74.9 -41.25 75.46 C-49.18 80.08 -57.14 80.92 -66.12 79.06 C-71.01 77.25 -76.23 75.05 -79.5 70.81 C-79.5 70.15 -79.5 69.49 -79.5 68.81 C-80.16 68.81 -80.82 68.81 -81.5 68.81 C-85.54 61.46 -87.37 55.14 -85.5 46.81 C-85.34 46.08 -85.17 45.35 -85 44.59 C-82.49 35.48 -77.19 30.56 -69.12 25.94 C-67.26 24.92 -65.38 23.91 -63.5 22.91 C-59.95 20.97 -56.48 18.88 -53 16.81 C-45.54 12.41 -38.03 8.09 -30.5 3.81 C-29.91 3.47 -29.33 3.12 -28.72 2.77 C-19.49 -2.63 -10.12 -4.82 0 0 Z " fill="#fff" transform="translate(861.5,294.1875)"/>
<path d="M0 0 C6.08 3.05 11.99 6.43 17.77 10.01 C20.24 11.51 22.75 12.88 25.29 14.24 C30.66 17.13 35.87 20.26 41.07 23.45 C43.73 25.07 46.14 26.44 49.11 27.43 C49.11 28.09 49.11 28.75 49.11 29.43 C51.09 29.93 51.09 29.93 53.11 30.43 C53.11 31.09 53.11 31.75 53.11 32.43 C54.59 32.93 54.59 32.93 56.11 33.43 C61.19 39.34 63.39 46.35 62.86 54.06 C61.74 59.08 60.64 63.91 58.11 68.43 C57.45 68.43 56.79 68.43 56.11 68.43 C55.84 69.07 55.57 69.71 55.29 70.37 C54.11 72.43 54.11 72.43 51.11 73.43 C51.11 74.09 51.11 74.75 51.11 75.43 C46.03 79.36 39.45 80.86 33.11 80.24 C24.38 78.73 17.53 75.13 10.11 70.43 C8.38 69.39 6.65 68.34 4.92 67.31 C4.09 66.81 3.26 66.31 2.41 65.8 C-1.31 63.59 -5.06 61.43 -8.87 59.36 C-34.48 45.36 -34.48 45.36 -38.55 33.52 C-39.92 28.84 -39.95 25.27 -38.89 20.43 C-38.69 19.32 -38.48 18.2 -38.27 17.06 C-36.41 12.15 -33.53 8.21 -29.89 4.43 C-29.23 4.43 -28.57 4.43 -27.89 4.43 C-27.89 3.77 -27.89 3.11 -27.89 2.43 C-17.63 -2.5 -10.54 -4.99 0 0 Z " fill="#fff" transform="translate(121.892822265625,294.568115234375)"/>
<path d="M0 0 C5.47 2.79 8.71 7.07 11.96 12.16 C12.53 13 13.09 13.84 13.67 14.7 C17.45 20.43 20.62 26.31 23.61 32.49 C24.73 34.71 25.9 36.69 27.34 38.72 C28.96 41.16 28.96 41.16 28.96 44.16 C29.62 44.16 30.28 44.16 30.96 44.16 C31.46 46.64 31.46 46.64 31.96 49.16 C32.62 49.16 33.28 49.16 33.96 49.16 C39.65 58.87 43.37 66.62 41.96 78.16 C40.57 82.61 38.54 86.3 35.96 90.16 C35.3 90.16 34.64 90.16 33.96 90.16 C33.63 91.05 33.63 91.05 33.3 91.96 C30.49 96.57 24.86 98.36 19.96 100.16 C12.41 101.51 6.57 99.79 -0.04 96.16 C-0.91 95.77 -1.77 95.38 -2.66 94.97 C-9.33 89.89 -13.03 82.59 -16.55 75.16 C-18.42 71.39 -20.59 67.87 -22.84 64.32 C-23.99 62.24 -24.59 60.48 -25.04 58.16 C-25.7 58.16 -26.36 58.16 -27.04 58.16 C-27.41 57.4 -27.79 56.64 -28.18 55.85 C-30.98 50.19 -33.84 44.59 -36.96 39.1 C-37.32 38.46 -37.67 37.82 -38.04 37.16 C-38.41 36.55 -38.77 35.95 -39.15 35.32 C-41.5 29.59 -40.88 22.16 -39.23 16.3 C-31.96 0.15 -16.3 -4.5 0 0 Z " fill="#fff" transform="translate(279.0390625,137.83984375)"/>
<path d="M0 0 C6.18 3.5 11.67 8.41 14.69 14.94 C17.09 24.31 15.99 33.34 11.69 41.94 C11.03 41.94 10.37 41.94 9.69 41.94 C9.42 42.58 9.15 43.22 8.88 43.88 C7.69 45.94 7.69 45.94 4.69 46.94 C4.69 47.6 4.69 48.26 4.69 48.94 C3.17 50.08 3.17 50.08 1.07 51.32 C0.32 51.77 -0.43 52.21 -1.21 52.67 C-2.01 53.13 -2.8 53.59 -3.62 54.06 C-4.41 54.53 -5.2 55 -6.01 55.48 C-11.93 58.94 -11.93 58.94 -15.31 58.94 C-15.31 59.6 -15.31 60.26 -15.31 60.94 C-16.96 61.27 -18.61 61.6 -20.31 61.94 C-20.31 62.6 -20.31 63.26 -20.31 63.94 C-21.05 64.29 -21.79 64.64 -22.55 65 C-28.95 68.12 -35 71.5 -40.94 75.42 C-48.66 80.35 -57.05 81.03 -65.94 79.19 C-69.73 77.78 -72.87 76.04 -76.31 73.94 C-76.31 73.28 -76.31 72.62 -76.31 71.94 C-77.3 71.61 -78.29 71.28 -79.31 70.94 C-83.6 65.83 -86.4 59.62 -86.27 52.9 C-85.46 45.08 -83.29 39.03 -78.31 32.94 C-77.65 32.94 -76.99 32.94 -76.31 32.94 C-76.31 32.28 -76.31 31.62 -76.31 30.94 C-74.51 29.68 -74.51 29.68 -72 28.25 C-68.24 26.08 -64.57 23.82 -60.94 21.44 C-56.11 18.34 -51.13 15.79 -45.98 13.28 C-42.87 11.72 -40.15 9.94 -37.31 7.94 C-32.71 4.94 -32.71 4.94 -29.31 4.94 C-29.31 4.28 -29.31 3.62 -29.31 2.94 C-19.48 -1.94 -10.44 -4.76 0 0 Z " fill="#fff" transform="translate(168.3125,694.0625)"/>
</svg>
